<svg class="svg-icon" style="width: 1em; height: 1em;vertical-align: middle;fill: currentColor;overflow: hidden;" viewBox="0 0 1024 1024" version="1.1" xmlns="http://www.w3.org/2000/svg"><path d="M896 704c0 16.213333-8.96 30.293333-22.613333 37.546667l-337.066667 189.44c-6.826667 5.12-15.36 7.68-24.32 7.68-8.96 0-17.493333-2.56-24.32-7.68l-337.066667-189.44A42.282667 42.282667 0 0 1 128 704v-384c0-16.213333 8.96-30.293333 22.613333-37.546667l337.066667-189.44c6.826667-5.12 15.36-7.68 24.32-7.68 8.96 0 17.493333 2.56 24.32 7.68l337.066667 189.44c13.653333 7.253333 22.613333 21.333333 22.613333 37.546667v384z" fill="" /></svg>